<svg class="svg-logo" width="293" height="60" viewBox="0 0 293 60" fill="none" xmlns="http://www.w3.org/2000/svg">
    <mask id="mask0" style="mask-type:alpha" maskUnits="userSpaceOnUse" x="0" y="0" width="60" height="60">
        <path fill-rule="evenodd" clip-rule="evenodd" d="M0 0H59.9996V59.9999H0V0Z" fill="white"></path>
    </mask>
    <g mask="url(#mask0)">
        <path fill-rule="evenodd" clip-rule="evenodd" d="M51.213 8.78625C62.928 20.5022 62.928 39.4972 51.213 51.2132C39.497 62.9292 20.502 62.9292 8.78602 51.2132C-2.92998 39.4972 -2.92998 20.5022 8.78602 8.78625C20.502 -2.92875 39.497 -2.92875 51.213 8.78625" fill="#F8D608"></path>
    </g>
    <path fill-rule="evenodd" clip-rule="evenodd" d="M47.1917 48.0882C39.3807 55.8992 20.6197 55.8992 12.8087 48.0882C4.99867 40.2772 4.99867 19.7222 12.8087 11.9122C20.6197 4.10219 39.3807 4.10219 47.1917 11.9122C55.0027 19.7222 55.0027 40.2772 47.1917 48.0882" fill="#05B9AB"></path>
    <path fill-rule="evenodd" clip-rule="evenodd" d="M43.2219 44.9094C39.3169 48.8144 20.7879 48.8144 16.8829 44.9094C12.9779 41.0044 12.9779 18.8884 16.8829 14.9834C20.7879 11.0784 39.3169 11.0784 43.2219 14.9834C47.1269 18.8884 47.1269 41.0044 43.2219 44.9094" fill="#233847"></path>
    <mask id="mask1" style="mask-type:alpha" maskUnits="userSpaceOnUse" x="0" y="0" width="293" height="60">
        <path fill-rule="evenodd" clip-rule="evenodd" d="M0 60H292.489V0H0V60Z" fill="white"></path>
    </mask>
    <g mask="url(#mask1)">
        <path fill-rule="evenodd" clip-rule="evenodd" d="M20.8525 41.8381H39.1475V18.1621H20.8525V41.8381Z" fill="white"></path>
        <path fill-rule="evenodd" clip-rule="evenodd" d="M87.8596 19.5422H82.1266V30.2272H87.8596C92.1336 30.2272 94.2706 28.2452 94.2706 24.9102C94.2706 21.5222 92.1336 19.5422 87.8596 19.5422V19.5422ZM87.7556 38.2002H82.1266V47.8962H71.8066V11.4102H88.4856C98.4406 11.4102 104.695 16.5702 104.695 24.9102C104.695 30.2782 102.089 34.2392 97.5546 36.4292L105.425 47.8962H94.3746L87.7556 38.2002Z" fill="white" class="svg-logo__name"></path>
        <path fill-rule="evenodd" clip-rule="evenodd" d="M103.601 43.2572L109.231 36.5852C111.159 39.0872 113.191 40.3912 115.537 40.3912C118.508 40.3912 120.123 38.5662 120.123 35.0732V19.3862H107.511V11.4102H130.34V34.4482C130.34 43.9342 125.44 48.6252 116.267 48.6252C110.951 48.6252 106.416 46.7482 103.601 43.2572" fill="white" class="svg-logo__name"></path>
        <path fill-rule="evenodd" clip-rule="evenodd" d="M154.784 34.8132V47.8952H144.464V34.6572L130.547 11.4102H141.441L150.093 25.9002L158.745 11.4102H168.753L154.784 34.8132Z" fill="white" class="svg-logo__name"></path>
        <path fill-rule="evenodd" clip-rule="evenodd" d="M183.191 33.7197C183.191 29.4457 180.637 27.0477 177.249 27.0477C173.913 27.0477 171.307 29.4457 171.307 33.7197C171.307 38.0447 173.913 40.4947 177.249 40.4947C180.637 40.4947 183.191 38.0447 183.191 33.7197M161.3 33.7197C161.3 25.2237 168.023 19.1777 177.249 19.1777C186.578 19.1777 193.198 25.2237 193.198 33.7197C193.198 42.2677 186.578 48.3657 177.249 48.3657C168.023 48.3657 161.3 42.2677 161.3 33.7197" fill="white" class="svg-logo__name"></path>
        <path fill-rule="evenodd" clip-rule="evenodd" d="M224.887 19.6465V47.8965H215.453V44.8735C213.317 47.2185 210.293 48.3655 207.062 48.3655C200.13 48.3655 195.075 44.4045 195.075 35.4385V19.6465H204.977V33.8235C204.977 38.2015 206.697 39.9215 209.667 39.9215C212.586 39.9215 214.984 37.9935 214.984 33.2505V19.6465H224.887Z" fill="white" class="svg-logo__name"></path>
        <path fill-rule="evenodd" clip-rule="evenodd" d="M258.192 31.7378V47.8948H248.289V33.3528C248.289 29.2878 246.516 27.5678 243.65 27.5678C240.47 27.5678 238.021 29.5488 238.021 34.2388V47.8948H228.119V19.6448H237.551V22.7198C239.793 20.3758 242.972 19.1758 246.516 19.1758C253.136 19.1758 258.192 22.9808 258.192 31.7378" fill="white" class="svg-logo__name"></path>
        <path fill-rule="evenodd" clip-rule="evenodd" d="M282.69 32.7788C282.69 29.3398 280.084 27.0468 276.54 27.0468C272.995 27.0468 270.336 29.3398 270.336 32.7788C270.336 36.2188 272.995 38.5648 276.54 38.5648C280.084 38.5648 282.69 36.2188 282.69 32.7788V32.7788ZM292.488 19.6448V42.7348C292.488 53.4198 286.443 58.4748 275.914 58.4748C270.493 58.4748 265.334 57.2238 261.893 54.7738L265.49 47.8418C267.836 49.7178 271.692 50.8658 275.028 50.8658C280.344 50.8658 282.586 48.4678 282.586 44.0378V43.0998C280.658 45.3418 277.791 46.4348 274.194 46.4348C266.689 46.4348 260.33 41.1188 260.33 32.7788C260.33 24.4928 266.689 19.1758 274.194 19.1758C278.104 19.1758 281.127 20.4268 283.055 23.0858V19.6448H292.488Z" fill="white" class="svg-logo__name"></path>
    </g>
</svg>